<svg width="30" height="30" viewBox="0 0 30 30" fill="none" xmlns="http://www.w3.org/2000/svg">
<path fill-rule="evenodd" clip-rule="evenodd" d="M15 30C23.2843 30 30 23.2843 30 15C30 6.71573 23.2843 0 15 0C6.71573 0 0 6.71573 0 15C0 23.2843 6.71573 30 15 30Z" fill="url(#paint0_linear_60092_4605)"/>
<path fill-rule="evenodd" clip-rule="evenodd" d="M21.7184 14.4385C21.9739 14.1971 22.064 13.8457 21.9537 13.5175C21.8431 13.1892 21.5557 12.9554 21.2011 12.9065L18.0538 12.4657C17.9191 12.4459 17.8035 12.3654 17.7437 12.2488L16.3366 9.50097C16.1788 9.19217 15.8573 9 15.5003 9C15.1431 9 14.8229 9.19217 14.6637 9.50097L13.2567 12.2488C13.1968 12.3654 13.0813 12.4472 12.9466 12.4657L9.79931 12.9065C9.44462 12.9554 9.15599 13.1892 9.04568 13.5175C8.93634 13.8457 9.02648 14.1984 9.28192 14.4385L11.5597 16.5766C11.6564 16.6684 11.701 16.7995 11.6779 16.928L11.1403 19.9479C11.0934 20.2138 11.1657 20.4733 11.3437 20.6765C11.6222 20.995 12.1064 21.0919 12.494 20.8947L15.3084 19.4692C15.4265 19.409 15.5739 19.4103 15.692 19.4692L18.5077 20.8947C18.6437 20.9643 18.7898 21 18.9411 21C19.2158 21 19.4774 20.8824 19.6567 20.6765C19.8347 20.4733 19.9073 20.2138 19.8601 19.9479L19.3225 16.928C19.2994 16.7995 19.344 16.6684 19.4406 16.5766L21.7184 14.4385Z" fill="white"/>
<defs>
<linearGradient id="paint0_linear_60092_4605" x1="30" y1="0" x2="0" y2="0" gradientUnits="userSpaceOnUse">
<stop stop-color="#ECBCB3"/>
<stop offset="1" stop-color="#EAA79E"/>
</linearGradient>
</defs>
</svg>
